<?xml version="1.0" standalone="no"?>
<!DOCTYPE svg PUBLIC "-//W3C//DTD SVG 20010904//EN"
 "http://www.w3.org/TR/2001/REC-SVG-20010904/DTD/svg10.dtd">
<svg version="1.0" xmlns="http://www.w3.org/2000/svg"
 width="512.000000pt" height="512.000000pt" viewBox="0 0 512.000000 512.000000"
 preserveAspectRatio="xMidYMid meet">
<metadata>
Created by potrace 1.14, written by Peter Selinger 2001-2017
</metadata>
<g transform="translate(0.000000,512.000000) scale(0.100000,-0.100000)"
fill="#000000" stroke="none">
<path d="M669 4251 l-29 -29 0 -1142 0 -1142 29 -29 29 -29 -28 0 c-16 0 -40
-10 -54 -22 -30 -28 -545 -911 -553 -948 -7 -39 22 -89 62 -106 52 -21 4769
-21 4820 0 40 17 71 71 62 107 -11 42 -575 942 -599 956 -13 7 -39 12 -58 13
l-34 0 23 16 c53 37 51 -2 51 1184 0 1186 2 1147 -51 1184 -21 15 -176 16
-1832 16 l-1809 0 -29 -29z m3535 -152 l26 -20 0 -1015 c0 -1001 0 -1014 -20
-1034 -20 -20 -33 -20 -1680 -20 -1640 0 -1660 0 -1680 20 -11 11 -22 30 -25
42 -3 13 -4 468 -3 1011 l3 989 28 24 28 24 1648 0 1648 0 27 -21z"/>
<path d="M3087 4010 c-256 -46 -424 -198 -472 -425 -18 -86 -18 -119 -1 -217
27 -148 118 -282 254 -371 37 -24 155 -91 262 -147 231 -122 281 -157 317
-217 52 -89 26 -212 -56 -266 -59 -39 -110 -52 -206 -51 -97 1 -156 19 -222
70 -53 40 -58 57 -63 218 l-5 149 -69 24 c-39 12 -73 23 -77 23 -3 0 -43 -72
-88 -160 -70 -138 -81 -167 -81 -211 0 -28 7 -66 16 -85 37 -77 170 -155 343
-202 85 -23 115 -25 261 -25 189 0 265 15 391 78 174 88 269 239 269 430 0
142 -53 267 -160 376 -81 83 -135 117 -385 249 -225 118 -272 156 -300 239
-27 81 -18 178 21 233 55 79 151 111 269 89 89 -16 161 -55 193 -104 26 -39
27 -47 31 -187 l3 -148 71 -21 c39 -12 74 -18 78 -14 18 21 158 312 163 342
17 92 -48 178 -188 246 -130 64 -223 86 -386 90 -74 2 -157 0 -183 -5z"/>
<path d="M1210 3890 l0 -90 75 0 75 0 0 -735 0 -735 -75 0 -75 0 0 -90 0 -90
620 2 620 3 31 31 c46 46 47 85 5 340 -20 122 -36 224 -36 228 0 3 -38 6 -85
6 -47 0 -85 -2 -85 -4 0 -37 -75 -348 -89 -366 -27 -38 -82 -51 -233 -57
l-138 -6 0 737 0 736 75 0 75 0 0 90 0 90 -380 0 -380 0 0 -90z"/>
</g>
</svg>
