<?xml version="1.0" standalone="no"?>
<!DOCTYPE svg PUBLIC "-//W3C//DTD SVG 20010904//EN"
 "http://www.w3.org/TR/2001/REC-SVG-20010904/DTD/svg10.dtd">
<svg version="1.0" xmlns="http://www.w3.org/2000/svg"
 width="1810.000000pt" height="1810.000000pt" viewBox="0 0 1810.000000 1810.000000"
 preserveAspectRatio="xMidYMid meet">
<metadata>
Created by potrace 1.14, written by Peter Selinger 2001-2017
</metadata>
<g transform="translate(0.000000,1810.000000) scale(0.100000,-0.100000)"
fill="#000000" stroke="none">
<path d="M9765 14463 c-284 -33 -471 -89 -696 -205 -383 -199 -689 -532 -865
-942 -100 -234 -159 -474 -185 -756 -16 -177 -7 -453 19 -575 33 -153 100
-303 168 -376 24 -25 24 -27 9 -68 -8 -24 -15 -76 -15 -116 0 -40 -7 -109 -15
-152 -100 -523 -189 -1433 -210 -2163 -3 -107 -8 -236 -11 -287 l-6 -92 -121
-123 c-166 -168 -273 -327 -351 -523 -32 -83 -86 -264 -86 -292 0 -6 20 -26
44 -43 l44 -32 -34 -91 c-18 -51 -63 -181 -99 -289 l-66 -197 -437 -3 -437 -3
-55 -26 c-73 -34 -120 -76 -153 -138 -58 -106 -65 -21 133 -1517 99 -747 196
-1476 215 -1618 19 -142 35 -265 35 -272 0 -11 -47 -14 -251 -14 l-251 0 7
-47 c48 -337 137 -504 308 -578 29 -13 2 -14 -250 -15 l-283 0 0 1875 0 1875
-805 0 -805 0 0 510 0 510 600 0 600 0 0 95 0 95 -791 0 -791 0 7 23 c25 78
44 161 47 208 l3 54 -55 7 c-160 21 -316 -56 -455 -223 l-58 -70 -91 3 -91 3
-3 34 c-4 40 -11 33 154 151 61 43 128 98 148 121 37 44 68 124 81 211 7 45 6
46 -23 53 -98 21 -194 -55 -309 -245 -52 -87 -63 -99 -67 -79 -3 13 -23 240
-46 504 -22 264 -45 497 -51 518 -7 26 -20 44 -39 55 -27 16 -29 22 -32 87
l-3 70 -43 3 c-114 8 -245 -48 -342 -147 -97 -98 -172 -228 -326 -560 l-20
-43 -37 178 c-20 99 -37 185 -37 192 0 7 60 76 134 152 110 114 142 154 172
215 35 71 38 84 42 186 l5 109 -42 0 c-119 0 -203 -107 -309 -389 l-39 -104
-15 69 c-9 38 -69 323 -133 634 -65 311 -124 576 -132 588 -52 83 -193 43
-193 -55 0 -18 68 -356 150 -750 83 -394 150 -721 150 -726 0 -5 -29 47 -63
115 -148 289 -277 415 -460 449 -32 5 -74 9 -95 7 l-37 -3 2 -120 c2 -193 42
-314 146 -442 49 -62 89 -97 327 -295 68 -56 164 -141 212 -188 l88 -85 79
-380 c44 -209 78 -381 76 -383 -1 -2 -32 34 -68 80 -181 232 -334 321 -497
291 -45 -9 -45 -9 -44 -50 1 -62 50 -201 93 -263 52 -76 132 -137 274 -210 67
-35 165 -87 218 -116 l95 -53 58 -278 c32 -153 60 -288 63 -300 l5 -23 -181 0
-181 0 0 -1874 0 -1874 -98 -4 c-78 -3 -108 -9 -153 -30 -235 -108 -266 -439
-56 -584 25 -17 43 -35 40 -38 -4 -3 -29 -6 -57 -6 -71 0 -555 -36 -821 -60
-620 -58 -945 -121 -945 -185 0 -132 1370 -256 3690 -335 1684 -57 2943 -74
5365 -74 1967 0 2604 5 3905 34 3139 70 5140 216 5140 375 0 79 -494 156
-1440 225 -151 11 -279 20 -285 20 -5 1 7 10 28 21 56 30 116 94 146 158 22
47 26 70 26 141 0 71 -4 94 -26 141 -34 72 -96 134 -168 168 l-56 26 -327 3
-327 3 42 52 c23 29 55 80 70 113 l29 60 78 10 c104 14 180 52 256 128 203
203 179 521 -48 637 -30 15 -69 24 -128 28 l-85 6 -7 87 c-11 150 -37 172
-229 191 l-125 12 198 348 c109 192 198 359 198 372 0 13 -12 37 -26 54 -33
39 -83 43 -117 9 -12 -13 -116 -188 -231 -391 -115 -202 -211 -369 -215 -371
-3 -2 -150 10 -325 27 -318 30 -319 30 -355 11 -19 -10 -43 -32 -52 -49 -26
-44 -59 -326 -66 -550 -11 -369 42 -614 159 -741 l41 -44 -619 1 c-581 0 -617
1 -579 16 133 54 216 161 258 333 15 57 47 253 47 280 0 6 -90 10 -253 10
l-252 0 177 1598 c98 878 177 1629 178 1667 0 126 -73 239 -189 294 l-56 26
-311 3 -311 3 -7 153 c-6 143 -21 301 -32 337 -3 12 8 19 51 28 66 15 77 32
62 100 -37 181 -263 508 -546 789 l-93 94 26 226 c70 603 102 1175 112 1997 7
484 -5 1101 -26 1438 -8 126 -7 157 7 215 24 96 24 329 0 442 -64 303 -210
573 -426 791 -173 174 -330 268 -523 314 -84 20 -246 18 -328 -3 l-65 -17 -75
59 c-256 202 -543 319 -872 355 -91 10 -256 12 -323 4z m1193 -1772 c151 -218
359 -448 502 -556 64 -49 239 -145 264 -145 12 0 54 -124 90 -266 73 -289 85
-654 30 -920 -112 -546 -456 -995 -952 -1243 -336 -168 -719 -225 -1052 -156
-65 13 -79 20 -107 53 l-33 37 0 -27 0 -27 -52 18 c-340 117 -644 406 -822
781 -94 200 -164 438 -200 690 -17 114 -36 335 -36 409 l0 46 153 1 c177 1
285 20 473 85 239 81 550 259 784 445 108 86 329 306 407 406 171 216 304 479
328 650 l7 47 75 -116 c41 -64 104 -160 141 -212z m1086 -705 c47 -19 114 -82
137 -128 52 -102 44 -225 -24 -361 -32 -64 -60 -101 -126 -167 l-86 -85 -7 80
c-19 199 -48 359 -98 529 -16 57 -30 107 -30 110 0 3 21 6 48 7 26 0 67 6 92
13 61 18 56 18 94 2z m-3735 -474 c52 -40 121 -75 177 -92 l40 -12 12 -186 c6
-103 9 -188 7 -190 -11 -11 -136 70 -189 123 -84 83 -128 168 -134 261 -5 78
11 149 31 137 7 -4 32 -22 56 -41z m2300 -2149 c-163 -214 -280 -295 -399
-279 -87 12 -222 99 -339 219 l-44 46 39 -10 c22 -6 120 -13 219 -16 185 -6
329 8 450 41 28 8 58 15 69 15 16 1 17 -1 5 -16z m121 -65 c48 -65 147 -156
236 -215 30 -20 54 -38 54 -40 0 -3 -13 -22 -30 -43 -97 -122 -356 -248 -579
-280 -127 -19 -315 -8 -424 24 -181 54 -336 155 -446 292 l-62 76 71 34 c81
38 161 113 181 167 l13 36 104 -100 c165 -159 275 -221 394 -222 57 0 79 5
135 33 75 37 187 143 258 243 22 31 42 57 45 57 3 0 26 -28 50 -62z m-7783
-910 c23 -260 41 -474 39 -475 -2 -2 -16 31 -31 74 -56 158 -142 301 -218 364
-52 43 -130 79 -197 91 -33 7 -62 9 -65 6 -10 -9 -25 -121 -25 -179 0 -127 41
-240 124 -341 l47 -58 -60 0 -61 0 0 -95 0 -95 162 -2 162 -3 94 -105 c52 -58
98 -114 104 -124 6 -10 21 -139 34 -285 13 -146 26 -288 29 -316 l6 -50 -64
95 c-94 140 -156 203 -239 245 -60 30 -81 35 -139 35 -65 0 -68 -1 -71 -26 -2
-14 -43 165 -91 397 -48 233 -105 506 -126 606 l-38 182 96 83 c53 46 146 124
206 173 122 100 225 200 252 245 9 17 20 30 23 30 3 0 24 -212 47 -472z m281
-719 c-2 -6 -8 -10 -13 -10 -5 0 -11 4 -13 10 -2 6 4 11 13 11 9 0 15 -5 13
-11z m4370 -19 c83 -51 233 -118 323 -144 99 -28 269 -50 338 -44 l47 5 -20
-56 c-14 -42 -20 -83 -20 -163 l-1 -108 -457 0 -457 0 80 236 c84 249 105 304
113 304 3 0 28 -13 54 -30z m-3898 -485 l0 -505 -203 0 -204 0 -27 313 c-15
171 -30 337 -33 368 l-6 57 94 55 c101 59 372 215 377 216 1 1 2 -226 2 -504z
m9039 373 c7 -51 15 -162 18 -245 l6 -153 -404 0 -404 0 -1 93 c0 73 -6 107
-26 164 l-26 73 32 4 c253 35 624 107 751 145 17 5 33 10 36 10 4 1 12 -41 18
-91z m-10032 -720 c21 -20 78 -64 127 -97 l90 -61 -127 0 c-70 0 -127 2 -127
5 0 6 -50 244 -56 270 -3 11 8 -2 24 -30 17 -27 47 -67 69 -87z m-136 -728
c60 -283 108 -526 109 -539 0 -13 -36 -75 -85 -147 -116 -169 -114 -194 17
-194 l77 0 -24 -52 c-49 -106 -24 -232 64 -314 l40 -38 -52 -13 c-138 -36
-247 -174 -247 -313 0 -96 62 -212 141 -263 32 -21 47 -37 44 -47 -3 -9 -52
-188 -110 -400 -59 -211 -107 -385 -108 -387 -1 -1 -69 -8 -150 -15 l-147 -14
0 1628 0 1628 162 -2 161 -3 108 -515z m485 484 c48 -33 53 -40 58 -83 12 -97
67 -735 64 -749 -2 -8 -34 32 -73 89 -38 56 -77 107 -86 112 -33 20 -63 -1
-114 -79 -27 -42 -50 -73 -52 -68 -1 5 -36 173 -78 374 -42 201 -80 382 -85
403 l-8 37 161 0 161 0 52 -36z m2764 -494 c0 -291 -2 -530 -4 -530 -2 0 -33
7 -67 16 -76 20 -132 15 -241 -22 -44 -14 -81 -24 -82 -23 -2 2 -1 23 2 46 l4
41 88 4 c71 2 94 7 117 24 43 32 42 59 -3 74 -45 15 -97 9 -154 -19 -24 -11
-46 -21 -48 -21 -3 0 -3 77 0 171 6 170 6 170 -19 200 -30 35 -56 37 -77 7
-13 -18 -16 -57 -16 -208 l-1 -185 -33 68 c-18 37 -46 81 -62 98 -32 35 -141
109 -159 109 -16 0 -35 -44 -35 -81 0 -48 32 -98 127 -200 147 -157 153 -165
153 -210 0 -34 -3 -39 -17 -35 -10 3 -40 11 -68 17 -27 7 -66 22 -85 34 -19
11 -48 27 -65 34 l-29 13 26 16 c33 20 67 78 53 90 -19 17 -78 32 -130 32 -39
0 -70 -9 -134 -40 -46 -22 -84 -39 -85 -38 -1 2 3 116 9 253 9 192 9 257 0
280 -25 61 -85 89 -124 58 -23 -19 -24 -26 -37 -309 -7 -159 -13 -293 -14
-299 0 -5 -14 23 -29 62 -57 145 -145 245 -272 309 l-68 34 -18 -33 c-11 -20
-17 -55 -18 -92 0 -79 32 -134 167 -281 55 -60 129 -145 165 -189 l66 -80 -7
-80 c-3 -44 -6 -116 -6 -160 l0 -80 -54 80 c-71 107 -146 179 -230 221 -93 46
-106 45 -106 -8 0 -52 26 -112 70 -161 18 -21 95 -89 171 -153 128 -107 151
-134 114 -134 -19 0 -28 -38 -21 -85 6 -36 6 -37 -21 -32 -159 31 -163 31
-220 19 -32 -6 -91 -28 -131 -47 -41 -19 -76 -35 -79 -35 -2 0 -3 21 -1 47 l3
47 80 12 c95 13 119 24 140 64 15 29 15 31 -10 40 -57 22 -119 8 -197 -44 -25
-16 -28 -16 -28 -2 0 28 -21 270 -26 304 -6 40 -39 72 -76 72 -39 0 -41 -19
-24 -223 9 -98 16 -181 16 -185 -1 -4 -12 13 -25 38 -39 76 -90 125 -168 166
-41 20 -80 35 -89 32 -9 -4 -19 -23 -22 -43 -13 -65 19 -110 174 -245 81 -70
142 -130 144 -143 3 -12 8 -59 11 -104 l6 -83 -60 64 c-62 63 -137 110 -200
122 l-34 7 6 -37 c11 -67 26 -81 294 -261 2 -1 18 -195 37 -431 20 -236 38
-450 41 -475 l5 -46 -52 3 c-192 12 -378 28 -387 34 -7 3 -25 54 -41 111 -26
89 -35 159 -65 492 -34 373 -34 391 -19 444 20 70 13 145 -21 222 -21 47 -28
92 -45 286 -11 127 -22 247 -24 268 -3 31 -1 37 15 37 19 0 39 28 39 56 0 9
-16 38 -36 66 l-36 49 -54 602 c-30 331 -54 608 -54 615 0 9 259 12 1260 12
l1260 0 0 -530z m-783 -618 c2 -38 2 -39 -50 -52 -29 -7 -90 -28 -136 -47 -46
-18 -84 -32 -85 -31 -1 2 0 35 2 75 l4 71 81 6 c45 4 102 8 127 9 25 2 47 4
50 5 3 1 6 -15 7 -36z m5168 -59 c-15 -107 -106 -203 -191 -203 -21 0 -24 4
-24 38 0 39 28 101 64 141 23 26 111 71 140 71 16 0 17 -5 11 -47z m-4385
-723 l0 -760 -39 43 c-22 23 -64 57 -95 76 -61 36 -236 101 -275 101 l-23 0 6
248 c3 136 8 303 11 372 3 69 7 246 11 394 l6 268 162 -6 c152 -6 179 -3 234
23 1 0 2 -341 2 -759z m-530 505 c11 -7 13 -269 2 -328 l-7 -39 -25 19 c-31
24 -84 43 -120 43 -41 0 -90 -39 -127 -100 -18 -30 -33 -47 -33 -38 0 10 -10
22 -22 29 -13 6 -32 20 -43 30 -39 37 -89 74 -94 71 -3 -2 -22 2 -41 8 l-35
12 6 136 c4 75 7 144 8 153 1 15 26 16 261 13 144 -2 265 -6 270 -9z m4640
-19 l70 -25 70 25 c120 42 213 29 286 -38 l43 -40 -44 -45 c-59 -59 -82 -130
-65 -206 13 -62 50 -119 96 -148 19 -11 34 -28 34 -36 0 -24 -57 -132 -98
-186 -67 -88 -124 -105 -222 -67 -64 25 -106 25 -172 0 -102 -39 -156 -21
-226 72 -176 234 -189 540 -27 663 77 59 149 68 255 31z m-6666 -351 c4 -10
-1 -15 -16 -15 -17 0 -18 2 -8 15 7 8 14 15 15 15 2 0 5 -7 9 -15z m1010 -314
c33 -34 69 -54 158 -89 19 -8 30 -23 39 -52 7 -22 28 -57 47 -77 l36 -36 -18
-431 c-9 -237 -19 -448 -22 -468 l-6 -38 -159 0 c-97 0 -159 4 -159 10 0 19
-90 1106 -95 1157 l-6 52 68 4 c37 2 70 4 73 5 3 1 23 -15 44 -37z m824 -81
c21 -8 59 -11 107 -8 l75 5 0 -142 0 -142 -40 -18 c-102 -46 -191 -209 -221
-403 l-12 -77 -87 0 c-82 0 -91 -2 -132 -30 -23 -17 -58 -55 -76 -85 l-33 -55
5 70 c3 39 11 194 16 345 6 151 13 303 16 336 l5 61 183 5 c100 2 188 8 195
12 9 6 5 14 -14 32 -26 24 -47 65 -59 119 l-8 30 24 -21 c13 -11 38 -27 56
-34z m-2094 -402 c16 -79 31 -151 34 -160 4 -17 -7 -18 -138 -18 -131 0 -142
1 -138 18 3 9 23 81 44 160 l38 142 66 0 65 0 29 -142z m250 0 c21 -79 41
-151 44 -160 3 -13 -2 -18 -17 -18 -11 0 -21 3 -21 8 0 4 -13 70 -30 147 -32
150 -34 165 -22 165 4 0 25 -64 46 -142z m12762 -339 c77 -72 41 -225 -66
-279 -22 -11 -49 -20 -61 -20 -19 0 -21 4 -15 38 3 20 9 89 12 152 3 63 8 121
10 129 7 22 90 8 120 -20z m-12941 -1 c11 -47 55 -258 55 -263 0 -3 -57 -5
-127 -6 -71 0 -181 -4 -246 -7 -68 -4 -117 -3 -117 2 0 8 65 252 75 284 3 9
48 12 179 12 174 0 176 0 181 -22z m285 -49 c19 -76 35 -239 23 -239 -22 1
-32 26 -58 150 -15 74 -30 141 -33 148 -3 10 3 13 24 10 25 -3 29 -9 44 -69z
m2460 -214 c0 -8 -7 -15 -16 -15 -14 0 -14 3 -4 15 7 8 14 15 16 15 2 0 4 -7
4 -15z m-2421 -42 c33 -8 36 -12 58 -93 25 -95 53 -130 104 -130 41 0 66 15
85 52 13 25 14 38 4 75 -6 25 -9 47 -7 49 2 2 39 -1 83 -6 43 -5 215 -15 382
-22 292 -11 424 -7 520 18 20 6 22 3 22 -40 0 -83 40 -150 112 -187 108 -55
458 29 517 125 19 30 26 34 85 39 74 7 265 67 350 109 39 20 67 28 82 24 l24
-6 0 -205 0 -205 -1840 0 -1840 0 0 184 0 183 63 6 c158 16 227 19 227 11 0
-5 -7 -31 -15 -58 -24 -77 -20 -110 16 -140 40 -34 88 -35 121 -1 22 22 32 49
67 182 l12 42 67 4 c119 7 666 -1 701 -10z m5571 -573 c1977 -6 4421 -14 5431
-19 l1836 -8 47 -32 c85 -59 81 -112 -13 -185 l-48 -36 -7207 0 -7207 0 26 49
c48 87 109 147 192 188 l77 38 660 6 c1180 9 2547 9 6206 -1z"/>
<path d="M10775 11582 c-55 -19 -117 -53 -182 -101 -33 -24 -43 -38 -43 -59 0
-62 49 -68 127 -16 88 58 160 87 219 87 58 0 96 -18 173 -83 67 -57 121 -52
121 11 0 36 -83 112 -165 150 -72 35 -170 39 -250 11z"/>
<path d="M9360 11415 c-116 -39 -174 -74 -178 -108 -4 -34 13 -57 42 -57 12 0
61 16 109 36 156 63 237 63 354 -1 91 -50 133 -45 133 16 0 33 -29 58 -119
101 -58 28 -78 32 -166 35 -85 3 -111 -1 -175 -22z"/>
<path d="M10827 11223 c-4 -3 -32 -10 -63 -14 -40 -5 -71 -18 -111 -46 -83
-57 -143 -112 -143 -133 0 -28 30 -33 55 -10 l22 21 5 -55 c5 -63 33 -110 86
-147 30 -20 48 -24 112 -24 64 0 82 4 112 24 55 38 81 84 86 152 2 32 6 59 7
59 1 0 20 -7 41 -16 54 -23 116 -12 149 27 29 35 31 51 10 69 -12 10 -20 9
-42 -6 -37 -24 -49 -21 -173 41 -117 58 -143 68 -153 58z"/>
<path d="M9425 11172 c-22 -9 -76 -36 -120 -58 -97 -51 -112 -54 -148 -30 -22
15 -30 16 -42 6 -21 -18 -19 -34 10 -69 33 -39 95 -50 149 -27 21 9 40 16 42
16 2 0 4 -24 4 -53 0 -107 85 -187 198 -187 65 0 107 18 149 61 38 41 53 77
53 131 l0 41 23 -22 c27 -24 57 -20 57 9 0 19 -56 74 -117 115 -21 13 -48 32
-60 41 -12 8 -46 19 -75 23 -29 5 -60 11 -68 14 -8 3 -33 -2 -55 -11z"/>
<path d="M11013 10835 c-138 -70 -180 -210 -86 -282 29 -22 49 -28 104 -31 59
-4 77 0 124 22 139 69 183 211 88 283 -30 23 -48 28 -107 31 -61 3 -78 0 -123
-23z"/>
<path d="M10054 10819 c-14 -23 -33 -134 -34 -195 0 -118 67 -200 187 -225 70
-14 118 2 150 50 50 75 13 106 -47 41 -36 -39 -43 -42 -75 -37 -52 8 -106 38
-129 70 -21 29 -23 68 -13 257 1 35 -2 45 -15 48 -9 2 -20 -2 -24 -9z"/>
<path d="M9133 10700 c-85 -38 -105 -126 -49 -211 114 -171 407 -139 383 42
-18 134 -204 229 -334 169z"/>
<path d="M10559 10134 c-19 -14 -50 -32 -69 -40 -56 -25 -200 -54 -265 -54
-84 0 -247 26 -326 51 -74 24 -102 21 -97 -12 2 -16 17 -26 63 -40 89 -28 206
-48 314 -55 150 -9 329 34 418 102 37 28 42 49 14 63 -14 8 -26 4 -52 -15z"/>
</g>
</svg>
