<?xml version="1.0" standalone="no"?>
<!DOCTYPE svg PUBLIC "-//W3C//DTD SVG 20010904//EN"
 "http://www.w3.org/TR/2001/REC-SVG-20010904/DTD/svg10.dtd">
<svg version="1.0" xmlns="http://www.w3.org/2000/svg"
 width="2352.000000pt" height="2352.000000pt" viewBox="0 0 2352.000000 2352.000000"
 preserveAspectRatio="xMidYMid meet">
<metadata>
Created by potrace 1.14, written by Peter Selinger 2001-2017
</metadata>
<g transform="translate(0.000000,2352.000000) scale(0.100000,-0.100000)"
fill="#000000" stroke="none">
<path d="M12060 23510 c-517 -30 -978 -151 -1635 -432 -312 -133 -536 -247
-637 -323 -526 -397 -888 -1132 -997 -2025 -129 -1060 -202 -3718 -188 -6888
l5 -1244 -23 49 c-619 1323 -1016 2162 -1047 2213 -22 36 -52 74 -66 85 -35
26 -139 31 -296 16 -306 -30 -503 -130 -695 -352 -80 -92 -90 -123 -68 -196
40 -131 1439 -4096 1456 -4129 12 -21 21 -43 21 -48 0 -33 507 -1625 767
-2411 713 -2151 1091 -3121 2081 -5345 331 -744 388 -864 496 -1055 339 -596
541 -859 782 -1018 356 -236 829 -367 1436 -397 207 -10 567 2 578 19 3 5 46
12 95 16 183 14 359 46 715 130 710 167 874 215 1151 334 101 43 249 102 329
131 197 72 240 92 334 154 228 152 367 391 427 736 30 167 36 471 15 713 -27
308 -73 628 -115 802 -177 722 -1038 3381 -2306 7125 -175 514 -338 996 -363
1071 l-46 137 32 113 c61 215 66 253 67 429 0 186 -13 240 -81 353 -35 57 -36
59 -20 91 22 47 20 73 -10 158 -119 332 -296 472 -626 494 -65 5 -98 11 -98
19 0 6 44 29 98 50 245 96 523 238 672 343 89 63 182 158 207 213 31 67 47
203 78 689 42 669 77 1480 107 2555 17 594 17 2651 0 3095 -54 1422 -147 2261
-307 2745 -71 218 -146 350 -236 414 -63 46 -315 124 -538 165 -46 9 -85 16
-87 16 -2 0 -4 6 -4 14 0 16 -43 27 -287 75 -422 84 -842 120 -1173 101z m525
-160 c178 -16 369 -42 380 -51 5 -5 -3 -9 -21 -9 -17 0 -138 -14 -270 -30
-1408 -178 -2140 -433 -2614 -909 -308 -309 -497 -712 -590 -1256 -68 -396
-217 -2339 -305 -3965 -127 -2366 -136 -3940 -26 -4477 31 -150 60 -202 164
-294 49 -44 124 -101 166 -127 l76 -47 -50 -7 c-28 -3 -118 -7 -201 -7 -283
-2 -458 50 -510 152 -46 87 -42 3679 6 5587 38 1533 100 2537 185 3028 96 551
296 1027 578 1377 98 122 272 284 383 357 183 122 776 378 1164 503 252 81
582 152 815 174 129 12 540 13 670 1z m1005 -197 c159 -30 400 -97 451 -125
153 -85 285 -522 373 -1233 154 -1243 186 -3385 91 -5975 -32 -873 -83 -1755
-115 -2023 -11 -87 -22 -108 -99 -180 -133 -124 -511 -320 -875 -452 l-48 -18
6 -61 c3 -33 13 -123 21 -199 52 -493 41 -955 -24 -1047 -28 -41 -208 -124
-419 -193 -508 -168 -1319 -329 -1897 -377 -179 -15 -525 -9 -580 11 -49 17
-76 56 -109 157 -61 185 -86 386 -93 753 l-6 287 -56 -20 c-172 -60 -431 -93
-555 -69 -115 21 -204 79 -241 156 -69 146 -111 1430 -102 3110 9 1504 26
1993 122 3345 20 272 45 601 56 730 69 828 234 1815 339 2035 147 307 380 564
680 749 498 309 1245 496 2535 635 154 17 294 32 310 34 39 5 72 1 235 -30z
m-6200 -8337 c0 -2 2 -11 6 -19 3 -10 -34 -39 -123 -98 -270 -175 -416 -234
-660 -264 -51 -7 -53 -6 -53 18 0 17 25 49 84 109 129 131 229 189 382 223 97
22 364 45 364 31z m774 -1629 c355 -758 647 -1382 649 -1388 1 -6 -37 -35 -85
-64 -295 -179 -470 -386 -598 -706 -47 -118 -130 -414 -145 -522 -4 -26 -10
-49 -14 -51 -7 -5 -1352 3816 -1346 3822 2 2 52 12 112 23 202 34 365 105 608
263 l130 85 21 -42 c12 -23 313 -662 668 -1420z m5601 -344 c138 -34 229 -115
302 -269 25 -52 42 -98 39 -101 -3 -3 -78 29 -166 72 l-160 78 -63 -7 c-34 -3
-81 -9 -103 -12 l-41 -6 -7 103 c-4 57 -10 119 -13 137 l-6 34 79 -7 c44 -4
106 -14 139 -22z m130 -447 c121 -59 159 -82 196 -122 94 -102 129 -197 129
-350 0 -113 -18 -216 -72 -403 l-41 -145 60 -180 c34 -100 201 -595 373 -1101
1212 -3572 2151 -6477 2305 -7128 30 -130 89 -587 106 -822 35 -506 -38 -856
-227 -1087 -98 -118 -194 -177 -439 -269 -104 -39 -272 -106 -374 -149 -229
-97 -331 -128 -786 -240 -656 -161 -760 -182 -977 -200 -334 -28 -645 32 -938
181 -294 150 -544 373 -800 714 -181 242 -333 490 -543 885 l-136 255 -1270
3665 c-698 2016 -1306 3770 -1351 3899 -50 143 -77 237 -71 240 6 4 26 49 46
101 20 52 81 181 135 285 242 467 334 740 334 990 0 104 -4 130 -26 195 -14
41 -25 75 -25 76 1 0 133 24 292 53 160 29 302 55 316 58 l25 5 18 -123 c31
-209 87 -381 152 -466 92 -121 422 -143 1034 -67 770 95 1635 306 1993 485
202 102 234 178 244 581 l6 228 36 6 c20 3 52 10 71 14 19 4 40 8 45 9 6 0 78
-32 160 -73z m-3775 -339 l0 -103 -301 -55 c-292 -54 -303 -56 -351 -41 -28 8
-89 22 -137 32 l-86 17 77 51 c83 54 81 53 323 88 118 17 312 61 410 93 33 11
61 20 63 20 1 1 2 -45 2 -102z m-1140 -9 c52 -11 108 -23 124 -27 29 -6 26 -9
-68 -69 l-97 -62 -35 76 c-19 42 -40 86 -45 97 -10 17 -9 19 7 13 11 -4 62
-17 114 -28z m198 -287 c54 -28 119 -102 155 -179 30 -63 32 -74 32 -177 l0
-110 -74 -192 c-41 -106 -77 -193 -81 -193 -7 0 -66 151 -96 248 -68 219 -77
455 -22 595 13 32 34 34 86 8z m-275 -198 c-9 -167 29 -365 113 -589 l34 -93
-65 -348 c-36 -191 -74 -373 -84 -403 -34 -94 -34 -112 -7 -181 14 -35 627
-1799 1361 -3919 1323 -3818 1337 -3856 1417 -4010 537 -1027 940 -1511 1488
-1788 103 -51 118 -62 85 -57 -22 3 -94 12 -159 21 -563 73 -1014 282 -1252
578 -214 266 -508 767 -699 1191 -563 1247 -1053 2387 -1350 3140 -428 1084
-1005 2775 -1609 4714 l-135 434 23 18 c33 26 41 53 76 233 65 332 146 551
273 741 50 74 172 201 251 263 57 44 224 150 238 151 3 1 4 -43 1 -96z"/>
<path d="M12470 20674 c-354 -29 -451 -41 -660 -80 -477 -89 -967 -267 -1470
-532 -137 -72 -176 -98 -231 -153 -81 -81 -133 -180 -154 -294 -12 -62 -30
-669 -81 -2760 -36 -1474 -64 -2729 -61 -2790 3 -82 10 -125 27 -170 71 -186
220 -321 405 -370 79 -20 192 -19 492 5 785 62 1271 157 1853 361 427 151
1082 450 1187 544 65 57 134 160 165 245 l23 65 3 2714 c2 2994 7 2763 -60
2901 -43 88 -160 205 -248 248 -131 64 -137 64 -665 67 -264 1 -500 1 -525 -1z
m1035 -169 c152 -41 269 -163 304 -316 15 -65 15 -5340 0 -5411 -16 -77 -64
-160 -125 -218 -110 -104 -785 -405 -1269 -565 -560 -185 -1070 -274 -1871
-326 -172 -12 -197 -11 -259 4 -37 9 -90 31 -116 47 -103 67 -189 193 -204
299 -8 59 121 5413 133 5528 12 110 52 193 130 265 46 42 105 76 292 170 458
228 826 361 1245 448 223 46 394 67 760 94 28 2 246 2 485 1 364 -3 445 -6
495 -20z"/>
<path d="M11945 19738 c-918 -166 -1671 -302 -1673 -303 -1 -1 -18 -1144 -37
-2541 -35 -2515 -35 -2538 -16 -2558 19 -19 35 -16 1686 345 917 200 1670 366
1674 369 4 3 24 1085 44 2405 20 1320 39 2442 41 2493 l3 92 -26 -1 c-14 0
-777 -136 -1696 -301z m1615 160 c1 -38 -73 -4763 -75 -4765 -2 -5 -3176 -696
-3179 -692 -5 5 63 4901 68 4906 5 5 3131 570 3164 572 16 1 22 -5 22 -21z"/>
<path d="M13120 10570 c-167 -23 -264 -59 -293 -110 -18 -31 -22 -95 -8 -132
5 -13 77 -91 161 -173 256 -253 344 -382 409 -600 28 -96 81 -145 154 -145 64
0 670 129 696 148 46 34 64 69 65 121 1 45 -5 58 -68 150 -236 346 -501 604
-707 687 -123 50 -283 71 -409 54z m267 -115 c228 -54 456 -251 727 -630 82
-115 95 -145 78 -173 -5 -7 -145 -41 -327 -78 -358 -74 -357 -74 -375 -2 -53
211 -168 386 -412 630 -110 109 -168 175 -168 188 0 61 315 103 477 65z"/>
<path d="M11825 10425 c-86 -16 -287 -76 -375 -112 -188 -77 -322 -208 -386
-380 -47 -125 -57 -195 -57 -393 0 -217 35 -488 79 -612 135 -379 421 -705
757 -863 184 -87 331 -123 532 -132 189 -7 287 10 412 72 239 118 410 393 468
750 29 177 15 432 -31 593 -24 82 -108 290 -154 383 -128 253 -345 476 -578
593 -194 97 -466 139 -667 101z m403 -116 c321 -80 588 -303 752 -628 59 -118
138 -330 161 -431 26 -112 35 -319 20 -435 -52 -398 -255 -688 -534 -762 -88
-24 -324 -23 -435 1 -348 75 -639 274 -845 579 -57 85 -136 245 -166 337 -59
183 -91 629 -57 801 31 154 116 297 222 370 93 64 150 86 404 160 146 43 326
46 478 8z"/>
<path d="M12025 9795 c-5 -1 -46 -13 -90 -25 -141 -40 -222 -92 -271 -175 -80
-138 -66 -446 30 -640 128 -259 360 -408 636 -408 83 0 104 4 158 28 188 84
302 371 248 625 -17 82 -72 221 -117 297 -80 135 -236 254 -380 288 -56 13
-185 19 -214 10z m230 -120 c150 -52 271 -184 345 -378 57 -149 60 -291 11
-433 -52 -148 -141 -214 -286 -214 -163 0 -287 53 -411 175 -68 67 -89 95
-127 175 -52 108 -70 197 -70 350 -1 142 27 212 105 265 28 18 140 60 213 79
37 9 170 -2 220 -19z"/>
<path d="M10476 9980 c-214 -58 -343 -127 -450 -241 -110 -117 -167 -249 -195
-454 -26 -183 -3 -671 35 -751 20 -41 62 -73 107 -81 40 -6 746 159 791 185
43 25 70 76 69 131 0 33 -13 73 -46 141 -72 149 -88 220 -94 399 -6 161 4 266
38 426 10 49 19 104 19 123 0 74 -53 134 -130 146 -22 3 -74 -5 -144 -24z
m164 -95 c11 -13 8 -40 -13 -153 -15 -75 -32 -193 -39 -261 -19 -214 15 -412
103 -600 42 -90 47 -122 24 -141 -8 -6 -173 -49 -367 -95 -398 -94 -390 -94
-401 -13 -32 233 -34 587 -4 723 66 295 203 432 527 526 109 32 152 35 170 14z"/>
<path d="M14034 9255 c-171 -29 -325 -60 -343 -69 -40 -21 -69 -68 -75 -121
-31 -267 -76 -478 -161 -745 -24 -76 -34 -125 -31 -145 4 -17 52 -107 108
-200 133 -223 219 -393 252 -502 49 -159 80 -200 163 -218 42 -9 109 21 240
108 277 183 425 371 494 627 21 76 24 107 24 290 0 228 -13 322 -81 580 -86
328 -123 411 -197 439 -40 16 -49 15 -393 -44z m374 -63 c20 -20 108 -307 146
-477 60 -264 71 -514 31 -685 -44 -189 -154 -350 -342 -501 -96 -77 -247 -169
-277 -169 -33 0 -43 15 -77 126 -44 140 -149 348 -301 592 -32 51 -58 103 -58
115 0 12 14 67 31 122 85 283 122 444 144 633 9 74 20 132 28 140 10 9 482 98
650 121 4 1 15 -7 25 -17z"/>
<path d="M10754 8500 c-421 -72 -630 -140 -733 -238 -38 -36 -41 -43 -41 -93
0 -48 12 -77 109 -274 417 -847 755 -1191 1281 -1302 69 -15 133 -18 340 -18
266 0 302 5 354 46 45 36 50 85 21 207 -46 194 -287 928 -318 971 -6 9 -109
105 -227 212 -118 107 -285 260 -371 341 -87 80 -165 151 -176 156 -39 20 -84
19 -239 -8z m391 -266 c110 -102 277 -256 372 -341 l172 -155 120 -361 c125
-378 191 -600 191 -649 0 -41 -25 -47 -223 -54 -352 -14 -611 50 -826 204 -89
62 -238 208 -321 312 -78 99 -213 303 -290 440 -77 138 -260 510 -260 530 0
39 106 100 250 144 74 22 326 76 490 104 122 21 104 31 325 -174z"/>
<path d="M13195 7973 c-11 -2 -58 -33 -105 -69 -111 -85 -259 -158 -382 -189
-124 -31 -313 -47 -506 -43 -139 3 -152 1 -178 -18 -42 -31 -65 -67 -71 -112
-5 -37 6 -65 106 -276 61 -130 148 -318 192 -418 45 -101 90 -193 101 -205 47
-50 102 -52 383 -12 187 27 343 62 500 114 175 57 383 149 418 183 42 42 51
97 28 163 -57 165 -307 808 -322 830 -30 43 -101 65 -164 52z m73 -110 c25
-23 325 -812 320 -845 -2 -18 -23 -32 -108 -70 -235 -105 -533 -187 -805 -221
-231 -30 -229 -30 -247 -10 -8 10 -48 92 -88 183 -40 91 -122 268 -182 395
-92 194 -107 233 -99 253 6 12 16 22 23 22 452 4 547 12 710 61 93 27 249 108
332 171 71 54 106 78 117 78 4 0 16 -8 27 -17z"/>
<path d="M14475 6584 c-16 -2 -86 -11 -155 -20 -269 -34 -688 -121 -1022 -213
-259 -71 -691 -210 -783 -251 -22 -10 -92 -39 -155 -65 -274 -111 -545 -261
-622 -342 -116 -125 -158 -324 -110 -523 10 -41 163 -498 340 -1015 176 -517
425 -1246 552 -1620 128 -374 245 -709 261 -743 37 -83 106 -179 165 -231 137
-120 412 -182 826 -184 119 -1 220 -5 224 -9 13 -13 51 -9 64 7 7 8 25 15 41
15 15 0 81 7 146 15 777 100 1563 395 1973 740 130 111 179 188 200 320 12 74
8 139 -15 242 -8 33 -248 692 -535 1463 -286 771 -520 1411 -520 1422 0 12 -9
35 -19 52 -11 17 -59 137 -106 266 -48 129 -101 262 -117 295 -91 181 -225
305 -386 355 -63 20 -190 32 -247 24z m220 -124 c32 -11 80 -34 106 -51 67
-43 158 -143 199 -219 31 -59 221 -551 215 -558 -4 -4 -878 -242 -891 -242
-11 0 -331 1007 -322 1015 5 5 253 47 373 63 129 17 256 14 320 -8z m-641
-585 c86 -275 156 -504 156 -510 0 -8 -1212 -345 -1254 -349 -11 -1 -327 993
-322 1010 9 25 576 200 921 284 275 67 329 78 336 71 4 -3 77 -231 163 -506z
m-1364 -391 c86 -274 154 -500 151 -501 -17 -7 -955 -262 -957 -260 -1 1 -39
110 -83 242 -66 196 -82 255 -87 325 -11 142 25 259 104 338 36 36 184 128
302 187 90 46 394 175 404 172 5 -2 80 -228 166 -503z m2888 -821 c177 -477
318 -870 314 -874 -11 -9 -982 -272 -987 -267 -8 7 -557 1759 -553 1763 5 5
871 243 888 244 12 1 97 -216 338 -866z m-1328 592 c0 -3 124 -399 276 -881
151 -482 272 -879 269 -883 -6 -6 -1259 -351 -1261 -348 -5 9 -547 1743 -548
1755 -1 12 135 53 624 188 671 185 640 176 640 169z m-1341 -467 c59 -183 521
-1657 521 -1666 0 -8 -880 -253 -905 -252 -9 0 -596 1704 -599 1738 -1 13 98
43 459 143 253 70 468 127 477 128 12 1 24 -22 47 -91z m3036 -1115 c71 -183
343 -927 356 -977 26 -96 25 -219 -2 -291 -48 -129 -280 -311 -598 -469 -129
-64 -260 -121 -264 -115 -2 2 -115 361 -252 798 -201 640 -247 796 -235 800
24 9 964 268 976 270 7 0 15 -7 19 -16z m-861 -1076 c137 -435 249 -798 250
-805 3 -41 -556 -197 -914 -256 -164 -27 -359 -51 -364 -45 -8 8 -489 1549
-485 1552 4 3 1247 345 1259 346 3 1 117 -356 254 -792z m-1595 346 c12 -38
119 -381 240 -763 l218 -695 -156 -3 c-259 -5 -501 27 -666 89 -84 31 -188
136 -238 239 -30 61 -340 951 -334 956 6 5 885 243 899 243 13 1 22 -17 37
-66z"/>
</g>
</svg>
