<?xml version="1.0" standalone="no"?>
<!DOCTYPE svg PUBLIC "-//W3C//DTD SVG 20010904//EN"
 "http://www.w3.org/TR/2001/REC-SVG-20010904/DTD/svg10.dtd">
<svg version="1.0" xmlns="http://www.w3.org/2000/svg"
 width="512.000000pt" height="512.000000pt" viewBox="0 0 512.000000 512.000000"
 preserveAspectRatio="xMidYMid meet">
<metadata>
Created by potrace 1.14, written by Peter Selinger 2001-2017
</metadata>
<g transform="translate(0.000000,512.000000) scale(0.100000,-0.100000)"
fill="#000000" stroke="none">
<path d="M880 5114 c-131 -20 -254 -60 -360 -117 -251 -135 -439 -392 -500
-682 -18 -86 -18 -163 -19 -1750 0 -1773 -1 -1726 49 -1875 30 -90 94 -215
143 -280 144 -193 380 -347 592 -386 11 -2 43 -8 70 -13 31 -6 676 -10 1705
-10 1575 -1 1659 0 1745 18 50 10 113 26 140 35 75 26 203 92 265 139 59 44
185 168 210 206 8 13 22 33 32 45 28 37 96 177 118 244 51 154 49 85 46 1902
-2 1830 2 1691 -50 1854 -46 144 -168 326 -284 423 -31 26 -59 51 -62 54 -3 3
-39 26 -80 51 -96 59 -210 104 -324 128 -87 18 -161 19 -1751 18 -913 0 -1671
-2 -1685 -4z"/>
</g>
</svg>
